<svg xmlns="http://www.w3.org/2000/svg" width="48" height="48" viewBox="0 0 48 48" fill="none" stroke="#FFFFFF">
<path fill-rule="evenodd" clip-rule="evenodd" d="M13.5 2.5H34.5C36.1569 2.5 37.5 3.84315 37.5 5.5V42.5C37.5 44.1569 36.1569 45.5 34.5 45.5H13.5C11.8431 45.5 10.5 44.1569 10.5 42.5V5.5C10.5 3.84315 11.8431 2.5 13.5 2.5ZM26 26.5H33H26ZM26 37.5H33H26ZM26 34.5H33H26ZM18.5 30V23V30ZM15 26.5H22H15ZM21.5 40V39V40ZM15.5 34V33V34ZM15.5 39.5L21.5 33.5L15.5 39.5ZM12.5 9.5H35.5V17.5H12.5V9.5Z" stroke="#FFFFFF" />
</svg>